Coordinates
version=1
nRows=7
nColumns=40
inDegrees=yes

Units are S.I. units (second, meters, Newtons, ...)
If the header above contains a line with 'inDegrees', this indicates whether rotational values are in degrees (yes) or radians (no).

endheader
time	pelvis_tilt	pelvis_list	pelvis_rotation	pelvis_tx	pelvis_ty	pelvis_tz	hip_flexion_r	hip_adduction_r	hip_rotation_r	knee_angle_r	knee_angle_r_beta	ankle_angle_r	subtalar_angle_r	mtp_angle_r	hip_flexion_l	hip_adduction_l	hip_rotation_l	knee_angle_l	knee_angle_l_beta	ankle_angle_l	subtalar_angle_l	mtp_angle_l	lumbar_extension	lumbar_bending	lumbar_rotation	arm_flex_r	arm_add_r	arm_rot_r	elbow_flex_r	pro_sup_r	wrist_flex_r	wrist_dev_r	arm_flex_l	arm_add_l	arm_rot_l	elbow_flex_l	pro_sup_l	wrist_flex_l	wrist_dev_l
      1.39000000	      1.56327144	      8.71736868	    -89.13977763	      0.16647601	      0.99730849	      0.29533860	     27.29949563	     -4.05441287	     -3.22040307	     56.97095445	      0.99433073	      3.77894497	     -0.00000000	      0.00000000	     13.48312805	      6.19602780	      0.43356098	      8.00214840	      0.13966384	      1.63967934	     -0.00000000	     -0.00000000	      1.28424685	     -3.51693884	     -6.73486921	     -0.00000000	     -0.00000000	      0.00000000	      0.00000000	      0.00000000	      0.00000000	      0.00000000	     -0.00000000	     -0.00000000	     -0.00000000	      0.00000000	      0.00000000	     -0.00000000	      0.00000000
      1.40000000	      1.39565576	      8.53167031	    -88.79218278	      0.16737839	      0.99794090	      0.30382840	     27.82721339	     -3.90551790	     -3.33346111	     55.29020456	      0.96499611	      4.14715971	      0.00000000	      0.00000000	     12.53438915	      6.13053291	      0.84913896	      7.65302047	      0.13357040	      1.97757783	      0.00000000	      0.00000000	      0.99088861	     -3.38733412	     -7.03707644	      0.00000000	      0.00000000	      0.00000000	      0.00000000	      0.00000000	      0.00000000	      0.00000000	      0.00000000	      0.00000000	      0.00000000	      0.00000000	      0.00000000	      0.00000000	      0.00000000
      1.41000000	      1.24403472	      8.52965567	    -88.39231445	      0.16831145	      0.99817028	      0.31218615	     28.49288224	     -3.78667453	     -3.43783664	     53.46595501	      0.93315695	      4.41586967	     -0.00000000	      0.00000000	     11.82958176	      6.08747546	      1.32527096	      7.38262506	      0.12885111	      2.34435215	     -0.00000000	     -0.00000000	      0.91263553	     -3.27348447	     -7.34825675	     -0.00000000	      0.00000000	      0.00000000	      0.00000000	      0.00000000	      0.00000000	      0.00000000	      0.00000000	      0.00000000	      0.00000000	      0.00000000	      0.00000000	      0.00000000	      0.00000000
      1.42000000	      1.23146054	      8.61766162	    -87.97989699	      0.16930409	      0.99808831	      0.32047120	     29.21145713	     -3.85794489	     -3.53142938	     51.54300640	      0.89959517	      4.53940954	      0.00000000	      0.00000000	     11.28322215	      6.17245678	      1.52305464	      7.21399790	      0.12590802	      2.62076525	      0.00000000	      0.00000000	      0.92940230	     -3.33599678	     -7.70467871	      0.00000000	      0.00000000	      0.00000000	      0.00000000	      0.00000000	      0.00000000	      0.00000000	      0.00000000	      0.00000000	      0.00000000	      0.00000000	      0.00000000	      0.00000000	      0.00000000
      1.43000000	      0.95827314	      8.20276344	    -87.33384516	      0.17043321	      0.99880088	      0.32927268	     29.09443527	     -3.72139957	     -3.90474531	     49.16983867	      0.85817558	      4.47845709	      0.00000000	      0.00000000	      9.98897934	      6.01980071	      2.56089969	      6.72423722	      0.11736008	      2.98938683	      0.00000000	      0.00000000	      0.39703404	     -3.07903670	     -8.25247565	      0.00000000	      0.00000000	      0.00000000	      0.00000000	      0.00000000	      0.00000000	      0.00000000	      0.00000000	      0.00000000	      0.00000000	      0.00000000	      0.00000000	      0.00000000	      0.00000000
      1.44000000	      0.86846989	      8.12975168	    -86.79907667	      0.17144380	      0.99880640	      0.33779475	     29.39657919	     -3.73598863	     -4.06134224	     46.83027280	      0.81734245	      4.36445371	      0.00000000	      0.00000000	      9.16475406	      6.01584526	      3.13637214	      6.38467328	      0.11143357	      3.30923432	      0.00000000	      0.00000000	      0.24152930	     -3.04474286	     -8.71591911	      0.00000000	      0.00000000	      0.00000000	      0.00000000	      0.00000000	      0.00000000	      0.00000000	      0.00000000	      0.00000000	      0.00000000	      0.00000000	      0.00000000	      0.00000000	      0.00000000
      1.45000000	      0.81013541	      8.07846354	    -86.23498874	      0.17244236	      0.99868126	      0.34629570	     29.64886059	     -3.80388627	     -4.22393848	     44.37604687	      0.77450813	      4.17193214	      0.00000000	      0.00000000	      8.37022280	      6.03201148	      3.73172398	      6.06434646	      0.10584281	      3.63006049	      0.00000000	      0.00000000	      0.09102925	     -3.05649275	     -9.19194480	      0.00000000	      0.00000000	      0.00000000	      0.00000000	      0.00000000	      0.00000000	      0.00000000	      0.00000000	      0.00000000	      0.00000000	      0.00000000	      0.00000000	      0.00000000	      0.00000000
